<svg xmlns="http://www.w3.org/2000/svg" width="31.521" height="31.521" style="enable-background:new 0 0 31.521 31.521" xml:space="preserve"><path d="M26.943 4.654c-6.133-6.175-16.111-6.21-22.289-.075-6.177 6.134-6.209 16.112-.077 22.289 6.135 6.176 16.113 6.21 22.291.076 6.176-6.134 6.209-16.112.075-22.29zm-4.355-.731-3.343 3.32a9.232 9.232 0 0 0-6.91-.024l-3.32-3.343a13.713 13.713 0 0 1 13.573.047zM7.221 19.187l-3.343 3.319a13.706 13.706 0 0 1 .047-13.573l3.321 3.343a9.225 9.225 0 0 0-.025 6.911zm1.713 8.412 3.344-3.32a9.23 9.23 0 0 0 6.909.023l3.32 3.344a13.713 13.713 0 0 1-13.573-.047zm11.842-6.787c-2.785 2.766-7.301 2.75-10.068-.035-2.766-2.785-2.75-7.301.036-10.067s7.301-2.751 10.067.034c2.767 2.785 2.751 7.301-.035 10.068zm3.5-1.567a9.227 9.227 0 0 0 .024-6.91l3.343-3.32a13.708 13.708 0 0 1-.047 13.573l-3.32-3.343z"/></svg>